<?xml version="1.0" standalone="no"?>
<!DOCTYPE svg PUBLIC "-//W3C//DTD SVG 20010904//EN"
 "http://www.w3.org/TR/2001/REC-SVG-20010904/DTD/svg10.dtd">
<svg version="1.0" xmlns="http://www.w3.org/2000/svg"
 width="2048.000000pt" height="2048.000000pt" viewBox="0 0 2048.000000 2048.000000"
 preserveAspectRatio="xMidYMid meet">

<g transform="translate(0.000000,2048.000000) scale(0.100000,-0.100000)"
fill="#000000" stroke="none">
<path d="M9840 20423 c-291 -15 -456 -26 -515 -33 -38 -5 -119 -14 -180 -20
-126 -12 -363 -44 -480 -65 -44 -8 -120 -21 -170 -30 -575 -101 -1175 -269
-1765 -493 -257 -98 -465 -183 -630 -259 -41 -19 -111 -51 -155 -71 -217 -100
-525 -258 -675 -347 -571 -340 -683 -414 -1111 -736 -803 -603 -1507 -1302
-2079 -2065 -548 -730 -1069 -1686 -1396 -2564 -20 -52 -46 -122 -59 -155 -27
-69 -121 -359 -159 -488 -14 -48 -37 -124 -50 -170 -14 -45 -29 -100 -35 -122
-5 -22 -23 -94 -39 -160 -113 -446 -201 -930 -251 -1385 -41 -364 -46 -490
-46 -1095 0 -531 2 -617 23 -860 56 -654 161 -1260 319 -1840 367 -1350 915
-2435 1814 -3590 273 -351 776 -892 1094 -1176 461 -412 639 -556 1025 -828
301 -212 427 -293 735 -470 614 -352 1083 -573 1659 -780 727 -262 1621 -468
2311 -532 61 -5 153 -14 205 -20 398 -41 1157 -53 1563 -24 810 57 1442 166
2167 374 834 238 1463 509 2295 988 66 38 138 80 160 94 22 14 47 29 55 32 8
4 34 20 57 35 23 15 81 52 130 82 110 68 405 266 498 334 172 126 407 305 480
365 433 355 725 631 1099 1036 541 586 885 1041 1281 1690 178 292 284 485
445 810 167 340 247 519 370 842 44 113 177 507 210 622 206 706 329 1383 381
2096 17 232 18 1170 1 1430 -47 727 -175 1405 -423 2235 -243 814 -666 1741
-1126 2468 -112 178 -301 458 -392 582 -213 290 -394 522 -532 680 -31 36
-106 121 -165 190 -211 242 -624 649 -934 921 -641 561 -1447 1098 -2210 1471
-550 269 -981 435 -1580 608 -407 117 -587 159 -1060 249 -203 38 -546 83
-880 116 -267 26 -1013 43 -1280 28z m1105 -1087 c72 -8 200 -22 285 -31 85
-8 196 -22 245 -30 50 -8 135 -22 190 -30 265 -38 684 -127 930 -196 634 -178
1049 -335 1600 -603 669 -327 1179 -657 1807 -1169 403 -328 878 -811 1274
-1292 303 -368 624 -845 909 -1350 240 -426 460 -909 641 -1405 512 -1404 667
-3099 418 -4585 -161 -963 -450 -1808 -924 -2701 -207 -389 -631 -1019 -955
-1420 -230 -283 -629 -713 -865 -930 -386 -356 -929 -774 -1375 -1060 -316
-203 -376 -239 -711 -418 -603 -323 -1397 -622 -2045 -771 -866 -198 -1449
-269 -2209 -269 -1092 0 -2173 198 -3225 592 -468 175 -801 328 -1195 550
-564 317 -1068 672 -1591 1123 -657 566 -1250 1270 -1725 2045 -222 363 -534
979 -674 1328 -249 625 -398 1150 -505 1771 -120 701 -155 1302 -125 2140 12
331 29 531 71 830 86 624 196 1084 400 1675 133 383 165 465 359 900 147 328
454 869 723 1270 316 470 674 900 1126 1350 184 184 330 322 446 420 28 24 52
46 55 50 5 7 385 320 431 355 248 189 417 309 557 398 41 26 83 53 91 60 9 8
23 17 31 21 8 4 62 36 120 71 86 52 221 131 345 199 11 6 31 19 45 28 113 74
526 273 860 414 58 25 130 56 160 69 90 38 323 123 515 187 553 183 1185 325
1695 379 102 11 230 24 285 30 199 21 439 27 905 23 327 -2 516 -8 605 -18z"/>
<path d="M9885 17264 c-478 -24 -1140 -137 -1550 -264 -556 -171 -834 -279
-1219 -472 -393 -196 -639 -344 -1001 -603 -480 -343 -970 -804 -1418 -1333
-77 -91 -236 -305 -339 -457 -286 -420 -424 -664 -647 -1139 -256 -546 -466
-1240 -570 -1886 -101 -627 -103 -1364 -5 -2010 76 -502 230 -1081 409 -1535
58 -146 77 -192 137 -325 201 -447 514 -952 864 -1392 334 -420 837 -905 1314
-1269 572 -436 1320 -843 1982 -1081 589 -210 1264 -355 1818 -389 239 -15
691 -15 944 0 328 19 697 71 1041 148 422 94 1004 289 1375 460 209 97 596
293 707 359 36 22 198 119 228 137 152 93 341 220 465 311 208 153 529 416
659 540 125 119 404 398 445 446 21 25 62 70 90 100 238 256 585 719 778 1040
168 278 357 649 464 911 205 500 362 1041 438 1505 59 359 70 529 71 1054 0
524 -6 625 -55 965 -35 241 -78 458 -131 660 -21 83 -41 161 -45 175 -10 39
-112 365 -146 465 -211 623 -584 1326 -1003 1891 -476 641 -1101 1259 -1725
1705 -531 380 -1168 710 -1760 912 -567 193 -1030 294 -1625 353 -142 14 -821
26 -990 18z m1305 -2999 c137 -6 440 -51 608 -91 410 -96 870 -295 1242 -539
196 -128 420 -305 614 -484 138 -128 365 -401 493 -591 288 -431 525 -992 623
-1480 63 -315 73 -409 74 -740 1 -332 -5 -405 -54 -605 -97 -395 -300 -701
-592 -892 -175 -115 -320 -171 -558 -215 -167 -31 -430 -31 -590 1 -147 29
-267 70 -403 137 -220 109 -402 246 -673 505 -178 171 -206 199 -954 961 -261
265 -682 692 -936 948 -467 471 -582 593 -712 754 -142 176 -245 381 -285 565
-28 128 -30 457 -4 597 55 294 205 555 421 732 331 272 784 422 1341 445 70 3
115 2 345 -8z m-3531 -3021 c340 -70 538 -189 951 -573 185 -172 2290 -2271
2508 -2501 234 -247 319 -359 407 -539 183 -373 184 -787 2 -1140 -62 -121
-107 -184 -197 -277 -266 -274 -646 -437 -1165 -499 -190 -23 -608 -23 -795 0
-554 67 -966 188 -1420 415 -76 38 -172 89 -215 114 -42 26 -78 46 -81 46 -8
0 -211 135 -299 199 -131 94 -332 271 -471 413 -485 496 -801 1059 -968 1725
-79 317 -107 530 -109 848 -1 243 12 394 49 560 113 511 381 880 784 1080 225
111 414 152 709 154 161 1 199 -2 310 -25z"/>
<path d="M11755 12893 c-164 -36 -265 -76 -328 -129 -111 -93 -187 -285 -187
-472 0 -218 130 -503 372 -809 79 -100 308 -329 418 -416 420 -336 804 -417
1150 -242 126 64 204 154 254 295 34 96 43 173 34 282 -15 173 -79 367 -176
535 -243 419 -635 741 -1089 894 -173 58 -353 83 -448 62z"/>
<path d="M7710 9244 c-231 -45 -408 -161 -485 -318 -129 -262 -67 -641 160
-980 206 -308 483 -551 810 -710 316 -154 631 -178 842 -62 15 8 38 20 50 25
48 22 148 136 185 211 109 218 89 415 -77 755 -102 211 -291 472 -465 644
-142 142 -327 274 -483 346 -137 63 -237 87 -382 90 -71 2 -141 1 -155 -1z"/>
</g>
</svg>
